<svg xmlns="http://www.w3.org/2000/svg" width="16" height="16" fill="none"><path fill="#FCD439" d="M8 0a1 1 0 0 1 1 1v1a1 1 0 1 1-2 0V1a1 1 0 0 1 1-1ZM12 8a4 4 0 1 1-8 0 4 4 0 0 1 8 0ZM11.536 12.95l.707.707a1 1 0 0 0 1.414-1.414l-.707-.707a1 1 0 0 0-1.414 1.414ZM13.657 2.343a1 1 0 0 1 0 1.414l-.707.707a1 1 0 1 1-1.414-1.414l.707-.707a1 1 0 0 1 1.414 0ZM15 9a1 1 0 1 0 0-2h-1a1 1 0 1 0 0 2h1ZM8 13a1 1 0 0 1 1 1v1a1 1 0 1 1-2 0v-1a1 1 0 0 1 1-1ZM3.05 4.464A1 1 0 1 0 4.465 3.05l-.708-.707a1 1 0 0 0-1.414 1.414l.707.707ZM4.464 12.95l-.707.707a1 1 0 0 1-1.414-1.414l.707-.707a1 1 0 0 1 1.414 1.414ZM2 9a1 1 0 1 0 0-2H1a1 1 0 0 0 0 2h1Z"/></svg>